<svg id="calendar" xmlns="http://www.w3.org/2000/svg" width="35.448" height="35.448" viewBox="0 0 35.448 35.448">
  <g id="Group_48" data-name="Group 48">
    <g id="Group_47" data-name="Group 47">
      <circle id="Ellipse_18" data-name="Ellipse 18" cx="1.5" cy="1.5" r="1.5" transform="translate(25 13)" fill="#fff"/>
      <path id="Path_37" data-name="Path 37" d="M29.909,2.769h-1.8V1.385a1.385,1.385,0,1,0-2.769,0V2.769h-6.3V1.385a1.385,1.385,0,0,0-2.769,0V2.769H10.039V1.385a1.385,1.385,0,0,0-2.769,0V2.769H5.539A5.545,5.545,0,0,0,0,8.308v21.6a5.545,5.545,0,0,0,5.539,5.539H16.132a1.385,1.385,0,1,0,0-2.769H5.539a2.773,2.773,0,0,1-2.769-2.769V8.308A2.773,2.773,0,0,1,5.539,5.539H7.27V6.923a1.385,1.385,0,0,0,2.769,0V5.539H16.27V6.923a1.385,1.385,0,0,0,2.769,0V5.539h6.3V6.923a1.385,1.385,0,1,0,2.769,0V5.539h1.8a2.773,2.773,0,0,1,2.769,2.769V16.2a1.385,1.385,0,0,0,2.769,0V8.308A5.545,5.545,0,0,0,29.909,2.769Z" fill="#fff"/>
      <path id="Path_38" data-name="Path 38" d="M278.377,270a8.377,8.377,0,1,0,8.377,8.377A8.387,8.387,0,0,0,278.377,270Zm0,13.985a5.608,5.608,0,1,1,5.608-5.608A5.614,5.614,0,0,1,278.377,283.985Z" transform="translate(-251.307 -251.307)" fill="#fff"/>
      <path id="Path_39" data-name="Path 39" d="M374.392,332.839h-.623v-1.454a1.385,1.385,0,0,0-2.769,0v2.839a1.385,1.385,0,0,0,1.385,1.385h2.008a1.385,1.385,0,1,0,0-2.769Z" transform="translate(-345.314 -307.153)" fill="#fff"/>
      <circle id="Ellipse_19" data-name="Ellipse 19" cx="1.5" cy="1.5" r="1.5" transform="translate(19 13)" fill="#fff"/>
      <circle id="Ellipse_20" data-name="Ellipse 20" cx="1.5" cy="1.5" r="1.5" transform="translate(13 19)" fill="#fff"/>
      <circle id="Ellipse_21" data-name="Ellipse 21" cx="1.5" cy="1.5" r="1.5" transform="translate(7 13)" fill="#fff"/>
      <circle id="Ellipse_22" data-name="Ellipse 22" cx="1.5" cy="1.5" r="1.5" transform="translate(7 19)" fill="#fff"/>
      <circle id="Ellipse_23" data-name="Ellipse 23" cx="1.5" cy="1.5" r="1.5" transform="translate(7 25)" fill="#fff"/>
      <circle id="Ellipse_24" data-name="Ellipse 24" cx="1.5" cy="1.5" r="1.5" transform="translate(13 25)" fill="#fff"/>
      <circle id="Ellipse_25" data-name="Ellipse 25" cx="1.5" cy="1.5" r="1.5" transform="translate(13 13)" fill="#fff"/>
    </g>
  </g>
</svg>
