<svg xmlns="http://www.w3.org/2000/svg" width="107" height="107" viewBox="0 0 107 107">
  <path id="Subtraction_2" data-name="Subtraction 2" d="M-334.5-145a53.167,53.167,0,0,1-20.825-4.2A53.323,53.323,0,0,1-372.33-160.67,53.32,53.32,0,0,1-383.8-177.675,53.162,53.162,0,0,1-388-198.5a53.164,53.164,0,0,1,4.2-20.825A53.324,53.324,0,0,1-372.33-236.33,53.324,53.324,0,0,1-355.324-247.8,53.166,53.166,0,0,1-334.5-252a53.164,53.164,0,0,1,20.824,4.2,53.32,53.32,0,0,1,17.005,11.466A53.323,53.323,0,0,1-285.2-219.324,53.168,53.168,0,0,1-281-198.5a53.165,53.165,0,0,1-4.2,20.824,53.32,53.32,0,0,1-11.465,17.005A53.32,53.32,0,0,1-313.675-149.2,53.165,53.165,0,0,1-334.5-145Zm0-93.859a40.11,40.11,0,0,0-15.71,3.172,40.224,40.224,0,0,0-12.829,8.649,40.224,40.224,0,0,0-8.649,12.829,40.109,40.109,0,0,0-3.172,15.71,40.107,40.107,0,0,0,3.172,15.71,40.226,40.226,0,0,0,8.649,12.829,40.224,40.224,0,0,0,12.829,8.65,40.107,40.107,0,0,0,15.71,3.172,40.1,40.1,0,0,0,15.709-3.172,40.222,40.222,0,0,0,12.828-8.65,40.225,40.225,0,0,0,8.649-12.829,40.107,40.107,0,0,0,3.172-15.71,40.109,40.109,0,0,0-3.172-15.71,40.222,40.222,0,0,0-8.649-12.829,40.223,40.223,0,0,0-12.828-8.649A40.1,40.1,0,0,0-334.5-238.859Z" transform="translate(388 252)" fill="#343434"/>
</svg>
