<svg id="delivery-truck" xmlns="http://www.w3.org/2000/svg" width="116" height="86.094" viewBox="0 0 116 86.094">
  <path id="Path_40" data-name="Path 40" d="M416.531,300a4.531,4.531,0,1,0,4.531,4.531A4.53,4.53,0,0,0,416.531,300Zm0,0" transform="translate(-318.656 -232.031)" fill="#242424"/>
  <path id="Path_41" data-name="Path 41" d="M414.266,220a2.266,2.266,0,1,0,2.266,2.266A2.267,2.267,0,0,0,414.266,220Zm0,0" transform="translate(-318.656 -170.156)" fill="#242424"/>
  <path id="Path_42" data-name="Path 42" d="M110.531,300a4.531,4.531,0,1,0,4.531,4.531A4.53,4.53,0,0,0,110.531,300Zm0,0" transform="translate(-81.984 -232.031)" fill="#242424"/>
  <path id="Path_43" data-name="Path 43" d="M106.477,40.926,102.571,25.3a6.794,6.794,0,0,0-4.7-11.707H79.75V6.8a6.8,6.8,0,0,0-6.8-6.8H6.8A6.8,6.8,0,0,0,0,6.8V65.7a6.8,6.8,0,0,0,6.8,6.8h8.156a13.594,13.594,0,1,0,27.188,0H84.281a13.594,13.594,0,1,0,27.188,0c0-.129-.006-.258-.01-.387A6.807,6.807,0,0,0,116,65.7V52.109A11.345,11.345,0,0,0,106.477,40.926ZM98.371,27.188l3.4,13.594H82.954l5.2-5.2a2.265,2.265,0,1,0-3.2-3.2l-5.2,5.194V27.188Zm1.769-6.8a2.267,2.267,0,0,1-2.266,2.266H79.75V18.125H97.875A2.268,2.268,0,0,1,100.141,20.391ZM28.547,81.563A9.063,9.063,0,1,1,37.609,72.5,9.073,9.073,0,0,1,28.547,81.563ZM41.363,67.969a13.594,13.594,0,0,0-25.633,0H6.8A2.268,2.268,0,0,1,4.531,65.7V6.8A2.268,2.268,0,0,1,6.8,4.531H72.953A2.268,2.268,0,0,1,75.219,6.8V67.969ZM97.875,81.563a9.063,9.063,0,1,1,9.062-9.062A9.073,9.073,0,0,1,97.875,81.563ZM110.53,67.536a13.594,13.594,0,0,0-25.471.433H79.75V45.313h24.922a6.808,6.808,0,0,1,6.407,4.531h-6.407a2.266,2.266,0,1,0,0,4.531h6.8V65.7A2.264,2.264,0,0,1,110.53,67.536Zm0,0" fill="#242424"/>
  <path id="Path_44" data-name="Path 44" d="M106.391,60a20.391,20.391,0,1,0,20.391,20.391A20.414,20.414,0,0,0,106.391,60Zm0,36.25A15.859,15.859,0,1,1,122.25,80.391,15.877,15.877,0,0,1,106.391,96.25Zm0,0" transform="translate(-66.516 -46.406)" fill="#242424"/>
  <path id="Path_45" data-name="Path 45" d="M177.328,109.063h-6.8v-6.8a2.266,2.266,0,0,0-4.531,0v9.063a2.265,2.265,0,0,0,2.266,2.266h9.063a2.266,2.266,0,0,0,0-4.531Zm0,0" transform="translate(-128.391 -77.344)" fill="#242424"/>
</svg>
