<svg id="Component_29_1" data-name="Component 29 – 1" xmlns="http://www.w3.org/2000/svg" width="26.141" height="21.875" viewBox="0 0 26.141 21.875">
  <path id="Path_7" data-name="Path 7" d="M11.25,38.25H21.875A3.125,3.125,0,0,1,25,41.375V44.5H23.438V41.375a1.563,1.563,0,0,0-1.562-1.562H11.25a1.563,1.563,0,0,0-1.562,1.563V57a1.563,1.563,0,0,0,1.563,1.563H21.875A1.562,1.562,0,0,0,23.438,57V53.875H25V57a3.125,3.125,0,0,1-3.125,3.125H11.25A3.125,3.125,0,0,1,8.125,57V41.375A3.125,3.125,0,0,1,11.25,38.25Z" transform="translate(-8.125 -38.25)" fill="#606060"/>
  <path id="Path_8" data-name="Path 8" d="M13.549,54.064a.781.781,0,1,0,1.1,1.1l5.39-5.391a.9.9,0,0,0,0-1.183l-5.39-5.39a.781.781,0,1,0-1.1,1.1l4.1,4.1H.781a.781.781,0,0,0,0,1.563H17.645Z" transform="translate(5.875 -38.25)" fill="#606060"/>
</svg>
