<svg id="Group_28" data-name="Group 28" xmlns="http://www.w3.org/2000/svg" width="13.938" height="13.05" viewBox="0 0 13.938 13.05">
  <path id="Path_15" data-name="Path 15" d="M13.067,19.781H10.311a3.385,3.385,0,0,0,.486-.389,1.822,1.822,0,0,0,0-2.563,1.842,1.842,0,0,0-2.555,0A4.794,4.794,0,0,0,7,19.781H6.938A4.8,4.8,0,0,0,5.7,16.829a1.842,1.842,0,0,0-2.555,0,1.823,1.823,0,0,0,0,2.563,3.448,3.448,0,0,0,.487.389H.871A.873.873,0,0,0,0,20.653V22.83a.436.436,0,0,0,.436.436H.871v5.227a.873.873,0,0,0,.871.871H12.2a.873.873,0,0,0,.871-.871V23.266H13.5a.436.436,0,0,0,.436-.436V20.653A.873.873,0,0,0,13.067,19.781ZM3.759,17.443a.929.929,0,0,1,1.32,0c.587.591,1.171,2.1.968,2.309a.287.287,0,0,1-.161.029,4.283,4.283,0,0,1-2.126-1A.95.95,0,0,1,3.759,17.443ZM6.533,28.493H1.742V23.266H6.533Zm0-6.1H.871V20.653H6.533Zm2.326-4.951a.938.938,0,0,1,1.32,1.335,4.283,4.283,0,0,1-2.126,1,.286.286,0,0,1-.162-.029C7.688,19.543,8.272,18.034,8.859,17.443ZM12.2,28.493H7.4V23.266H12.2Zm.871-6.1H7.4V20.653h5.662Z" transform="translate(0 -16.314)" fill="#fff"/>
</svg>
