<svg id="instagram-2" xmlns="http://www.w3.org/2000/svg" width="39.454" height="39.454" viewBox="0 0 39.454 39.454">
  <path id="Path_56" data-name="Path 56" d="M27.7,0H11.754A11.767,11.767,0,0,0,0,11.754V27.7A11.767,11.767,0,0,0,11.754,39.454H27.7A11.767,11.767,0,0,0,39.454,27.7V11.754A11.767,11.767,0,0,0,27.7,0Zm7.784,27.7A7.785,7.785,0,0,1,27.7,35.485H11.754A7.785,7.785,0,0,1,3.969,27.7V11.754a7.784,7.784,0,0,1,7.784-7.784H27.7a7.784,7.784,0,0,1,7.784,7.784V27.7Z" fill="#ab53cc"/>
  <path id="Path_57" data-name="Path 57" d="M143.2,133a10.2,10.2,0,1,0,10.2,10.2A10.216,10.216,0,0,0,143.2,133Zm0,16.439a6.235,6.235,0,1,1,6.235-6.235A6.235,6.235,0,0,1,143.2,149.439Z" transform="translate(-123.477 -123.477)" fill="#ab53cc"/>
  <ellipse id="Ellipse_26" data-name="Ellipse 26" cx="2.445" cy="2.445" rx="2.445" ry="2.445" transform="translate(27.506 7.154)" fill="#ab53cc"/>
</svg>
