<svg xmlns="http://www.w3.org/2000/svg" xmlns:xlink="http://www.w3.org/1999/xlink" viewBox="0 0 119.54 117.35">
<defs>
<style>.cls-1{fill:none;}.cls-2{fill:#444;}.cls-3{fill:#fff;}.cls-4{fill:#b7b7b7;}.cls-5{clip-path:url(#clip-path);}</style>
<clipPath id="clip-path">
<path class="cls-1" d="M45.87,22.56A19,19,0,0,0,32.18,28.4a20.25,20.25,0,0,0-5.66,14.12V91.94a20.17,20.17,0,0,0,6.39,14.83,18.92,18.92,0,0,0,13,5.14H93.76a19,19,0,0,0,14.09-6.29,20.21,20.21,0,0,0,5.25-13.68V42.52a20.18,20.18,0,0,0-6-14.46,19,19,0,0,0-13.33-5.5Z"/></clipPath>
</defs>
<title>logo_2</title>
        <g id="Слой_2" data-name="Слой 2">
        <g id="Слой_1-2" data-name="Слой 1">
        <path class="cls-2" d="M93.18,111.91H29.59A19.94,19.94,0,0,1,9.66,92V28.39A19.93,19.93,0,0,1,29.59,8.47H93.18A19.92,19.92,0,0,1,113.1,28.39V92a19.92,19.92,0,0,1-19.92,19.92"/>
    <polygon class="cls-3" points="38.99 60.4 2.64 60.51 0 63.15 34.85 98 37.49 95.36 37.49 82.42 30.01 74.94 45.05 74.84 61.06 58.68 50.83 48.45 38.99 60.4"/><polygon class="cls-4" points="60.51 2.64 60.47 15.54 67.89 22.96 53.01 22.96 23.03 52.95 23.57 71.52 37.49 95.36 37.49 58.94 59.01 37.42 82.35 37.42 82.42 37.48 95.29 37.42 95.36 37.49 98 34.85 63.15 0 60.51 2.64"/>
    <polygon class="cls-3" points="60.41 38.79 45.66 53.67 55.89 63.9 74.9 44.71 70.65 22.01 60.51 2.64 60.41 38.79"/>
        <g class="cls-5">
        <polygon class="cls-3" points="119.54 103.91 106.5 117.36 57.77 67.07 74.77 57.7 119.54 103.91"/></g>
        </g>
    </g>
</svg>