<svg id="Component_29_1" data-name="Component 29 – 1" xmlns="http://www.w3.org/2000/svg" width="110.746" height="110.746" viewBox="0 0 110.746 110.746">
  <path id="Path_1" data-name="Path 1" d="M17.572,1,21.84,11.423l10.928.969a.9.9,0,0,1,.491,1.557L24.97,21.36l2.484,11.026a.867.867,0,0,1-1.283.962L16.779,27.5,7.388,33.348A.867.867,0,0,1,6.1,32.386L8.589,21.36.3,13.947A.9.9,0,0,1,.789,12.39l10.928-.969L15.985,1a.85.85,0,0,1,1.586,0Z" transform="translate(23.89 31.721)" fill="#ac7701"/>
  <g id="tablet">
    <g id="Group_12" data-name="Group 12" transform="translate(50.813 58.552)">
      <g id="Group_11" data-name="Group 11">
        <path id="Path_3" data-name="Path 3" d="M287.483,279.954l-7.152-7.152a7.2,7.2,0,0,0-11.951,2.907,7.193,7.193,0,0,0-9.437,5.436,7.245,7.245,0,0,0-6.1,2.039,7.12,7.12,0,0,0-1.491,2.169l-4.135-4.135a7.379,7.379,0,0,0-10.184,0,7.2,7.2,0,0,0,0,10.189l17.641,17.641h-3.659a11.552,11.552,0,0,0-11.536,11.536,2.308,2.308,0,0,0,2.307,2.307H269.7a25.15,25.15,0,0,0,17.779-42.937ZM269.7,318.277H244.486a6.94,6.94,0,0,1,6.529-4.614h9.229a2.31,2.31,0,0,0,1.633-3.941L240.3,288.145a2.573,2.573,0,0,1,0-3.655,2.657,2.657,0,0,1,3.659,0l14.655,14.655a2.309,2.309,0,0,0,3.262-3.267l-5.768-5.768a2.584,2.584,0,0,1,0-3.655,2.648,2.648,0,0,1,3.659,0l3.461,3.461a2.309,2.309,0,0,0,3.262-3.267l-2.307-2.307a2.586,2.586,0,1,1,3.659-3.655L270.151,283a2.307,2.307,0,0,0,3.262-3.262,2.587,2.587,0,1,1,3.659-3.659l7.152,7.152A20.533,20.533,0,0,1,269.7,318.277Z" transform="translate(-234.92 -270.698)" fill="#505050"/>
      </g>
    </g>
    <g id="Group_14" data-name="Group 14">
      <g id="Group_13" data-name="Group 13">
        <path id="Path_4" data-name="Path 4" d="M66.909,0H11.536A11.552,11.552,0,0,0,0,11.536V99.21a11.552,11.552,0,0,0,11.536,11.536H48.451a2.307,2.307,0,0,0,0-4.615H11.536A6.93,6.93,0,0,1,4.614,99.21V11.536a6.93,6.93,0,0,1,6.922-6.922H66.909a6.93,6.93,0,0,1,6.922,6.922V57.68a2.307,2.307,0,1,0,4.615,0V11.536A11.552,11.552,0,0,0,66.909,0Z" fill="#505050"/>
      </g>
    </g>
    <g id="Group_16" data-name="Group 16" transform="translate(0 87.674)">
      <g id="Group_15" data-name="Group 15">
        <path id="Path_5" data-name="Path 5" d="M53.066,405.333H2.307a2.307,2.307,0,0,0,0,4.615H53.066a2.307,2.307,0,1,0,0-4.615Z" transform="translate(0 -405.333)" fill="#505050"/>
      </g>
    </g>
    <g id="Group_18" data-name="Group 18" transform="translate(32.301 96.903)">
      <g id="Group_17" data-name="Group 17">
        <path id="Path_6" data-name="Path 6" d="M160.869,448H151.64a2.307,2.307,0,0,0,0,4.615h9.229a2.307,2.307,0,1,0,0-4.615Z" transform="translate(-149.333 -448)" fill="#505050"/>
      </g>
    </g>
    <g id="Group_20" data-name="Group 20" transform="translate(9.229 9.229)">
      <g id="Group_19" data-name="Group 19">
        <circle id="Ellipse_13" data-name="Ellipse 13" cx="2.307" cy="2.307" r="2.307" fill="#505050"/>
      </g>
    </g>
  </g>
</svg>
