<svg xmlns="http://www.w3.org/2000/svg" width="26.328" height="43.846" viewBox="0 0 26.328 43.846"><g transform="translate(0 0)"><path d="M30.08,56.887a17.037,17.037,0,0,1-9.088-3.244c-.326-.255-.662-.5-.959-.787a2.724,2.724,0,0,1,3.084-4.441,5.313,5.313,0,0,1,.753.445,14.9,14.9,0,0,0,16.516.151,4.478,4.478,0,0,1,1.609-.832,2.526,2.526,0,0,1,2.893,1.154,2.449,2.449,0,0,1-.176,3.222,13.341,13.341,0,0,1-4.8,3.1,22.546,22.546,0,0,1-5.453,1.222c.281.305.413.456.588.632,2.525,2.537,5.06,5.063,7.577,7.607a2.506,2.506,0,0,1,.564,2.95,2.991,2.991,0,0,1-2.8,1.75,2.732,2.732,0,0,1-1.775-.908c-1.905-1.917-3.846-3.8-5.713-5.753-.543-.568-.8-.461-1.284.033-1.917,1.973-3.865,3.916-5.824,5.848a2.442,2.442,0,0,1-2.947.528,2.982,2.982,0,0,1-1.722-2.746,2.748,2.748,0,0,1,.923-1.843q3.748-3.742,7.483-7.5C29.686,57.32,29.84,57.143,30.08,56.887Z" transform="translate(-19.074 -26.003)" fill="#f7931d"/><path d="M34.595,22.193A11.1,11.1,0,1,1,45.758,11.24,11.1,11.1,0,0,1,34.595,22.193Zm5.511-11.106a5.428,5.428,0,1,0-5.394,5.442A5.4,5.4,0,0,0,40.106,11.087Z" transform="translate(-21.518 0)" fill="#f7931d"/></g></svg>