<svg xmlns="http://www.w3.org/2000/svg" width="118.206" height="109.863" viewBox="0 0 118.206 109.863">
  <path id="Path_48" data-name="Path 48" d="M26.832,109.189a2.31,2.31,0,0,0,3.264,0l7.089-7.089a10.688,10.688,0,0,0,3.1-8.663l2.542-2.455a10.712,10.712,0,0,1,7.467-3.016h30.4a20.661,20.661,0,0,0,14.492-5.889,2.165,2.165,0,0,0,.163-.177L116.03,57.062a9.236,9.236,0,0,0-14.056-11.984L99.74,47.389V2.309A2.309,2.309,0,0,0,97.431,0H38.095a2.309,2.309,0,0,0-2.309,2.309V54.036a27.772,27.772,0,0,0-19.851,15.54,10.662,10.662,0,0,0-8.129,3.134L.68,79.8a2.309,2.309,0,0,0,0,3.27ZM95.123,4.617V52.163l-6.682,6.908a9.276,9.276,0,0,0-7.171-3.43H54.5a1.275,1.275,0,0,1-.47-.1,29.835,29.835,0,0,0-11.318-2.21c-.773,0-1.543.028-2.309.078V4.617Zm-56.7,53.637A26.233,26.233,0,0,1,52.3,59.822a5.874,5.874,0,0,0,2.2.438H81.269a4.617,4.617,0,1,1,0,9.235H61.183a2.309,2.309,0,0,0,0,4.617H81.269A9.245,9.245,0,0,0,90.5,64.878a9.338,9.338,0,0,0-.082-1.212c.482-.493,14.437-14.926,14.92-15.427.035-.037.07-.075.1-.114a4.618,4.618,0,1,1,7.047,5.97L91.879,78.849a16.065,16.065,0,0,1-11.186,4.5h-30.4a15.3,15.3,0,0,0-10.673,4.31L38.6,88.64a10.748,10.748,0,0,0-1.418-1.747L23.005,72.713a10.781,10.781,0,0,0-2.547-1.884C23.985,63.872,30.286,59.438,38.426,58.254ZM11.067,75.977a6.122,6.122,0,0,1,8.672,0L33.922,90.16a6.125,6.125,0,0,1,0,8.672l-5.46,5.459L5.579,81.439Zm0,0" transform="translate(0)" fill="#242424"/>
</svg>
