<svg id="Component_29_1" data-name="Component 29 – 1" xmlns="http://www.w3.org/2000/svg" width="24.215" height="25.868" viewBox="0 0 24.215 25.868">
  <path id="Path_16" data-name="Path 16" d="M59.759,16.148l-1.472-2.283a6.431,6.431,0,0,1-1.039-3.489v-2a5.661,5.661,0,0,0-4.286-5.349V1.6a1.719,1.719,0,0,0-3.429,0V3.027a5.661,5.661,0,0,0-4.286,5.349v2a6.434,6.434,0,0,1-1.038,3.488l-1.472,2.283a.375.375,0,0,0-.005.4.434.434,0,0,0,.372.2H59.391a.436.436,0,0,0,.373-.2A.376.376,0,0,0,59.759,16.148Z" transform="matrix(0.966, 0.259, -0.259, 0.966, -36.885, -11.045)" fill="#606060"/>
  <path id="Path_17" data-name="Path 17" d="M188.815,469.333a4.432,4.432,0,0,0,8.023,0Z" transform="matrix(0.966, 0.259, -0.259, 0.966, -56.834, -483.618)" fill="#606060"/>
  <circle id="Ellipse_16" data-name="Ellipse 16" cx="6.5" cy="6.5" r="6.5" transform="translate(11.215 12.868)" fill="#ff5050"/>
</svg>
