<svg id="shopping-2" xmlns="http://www.w3.org/2000/svg" width="109.388" height="109.388" viewBox="0 0 109.388 109.388">
  <path id="Path_49" data-name="Path 49" d="M454.137,370.273A2.136,2.136,0,1,0,452,368.136,2.137,2.137,0,0,0,454.137,370.273Zm0,0" transform="translate(-355.431 -287.805)" fill="#242424"/>
  <path id="Path_50" data-name="Path 50" d="M6.409,109.388h96.569a6.416,6.416,0,0,0,6.409-6.409V23.5a2.136,2.136,0,0,0-2.136-2.136H92.3a21.365,21.365,0,0,0-42.73,0H33.329A2.136,2.136,0,0,0,31.193,23.5V48.285H2.136A2.136,2.136,0,0,0,0,50.421v52.558A6.416,6.416,0,0,0,6.409,109.388Zm-2.136-6.409V95.287H53.839v7.691a2.138,2.138,0,0,1-2.136,2.136H6.409A2.138,2.138,0,0,1,4.273,102.979Zm98.706,2.136H57.745a6.379,6.379,0,0,0,.367-2.136V95.287h47v7.691A2.138,2.138,0,0,1,102.979,105.115ZM70.931,4.273A17.111,17.111,0,0,1,88.023,21.365H53.839A17.08,17.08,0,0,1,70.931,4.273ZM35.466,25.638h14.1v9.828H47.43a2.136,2.136,0,0,0,0,4.273h8.546a2.136,2.136,0,0,0,0-4.273H53.839V25.638H88.023v9.828H85.887a2.136,2.136,0,1,0,0,4.273h8.546a2.136,2.136,0,1,0,0-4.273H92.3V25.638h12.819V91.014h-47V50.421a2.136,2.136,0,0,0-2.136-2.136H35.466Zm18.374,26.92V91.014H4.273V52.558Zm0,0" fill="#242424"/>
  <path id="Path_51" data-name="Path 51" d="M68.136,290.273v4.273a12.819,12.819,0,0,0,25.638,0v-4.273a2.136,2.136,0,1,0,0-4.273H89.5a2.136,2.136,0,0,0,0,4.273v4.273a8.546,8.546,0,0,1-17.092,0v-4.273a2.136,2.136,0,1,0,0-4.273H68.136a2.136,2.136,0,0,0,0,4.273Zm0,0" transform="translate(-51.899 -224.896)" fill="#242424"/>
  <path id="Path_52" data-name="Path 52" d="M454.137,267.365a2.136,2.136,0,0,0,2.136-2.136V248.136a2.136,2.136,0,0,0-4.273,0v17.092A2.136,2.136,0,0,0,454.137,267.365Zm0,0" transform="translate(-355.431 -193.442)" fill="#242424"/>
</svg>
