<svg id="Group_21" data-name="Group 21" xmlns="http://www.w3.org/2000/svg" width="25" height="21.875" viewBox="0 0 25 21.875">
  <path id="Path_7" data-name="Path 7" d="M13.549,54.064a.781.781,0,1,0,1.1,1.1l5.39-5.391a.9.9,0,0,0,0-1.183l-5.39-5.39a.781.781,0,1,0-1.1,1.1l4.1,4.1H.781a.781.781,0,0,0,0,1.563H17.645ZM21.875,38.25H6.25a3.125,3.125,0,0,0-3.125,3.125V44.5H4.688V41.375A1.563,1.563,0,0,1,6.25,39.813H21.875a1.563,1.563,0,0,1,1.563,1.563V57a1.563,1.563,0,0,1-1.562,1.563H6.25A1.562,1.562,0,0,1,4.688,57V53.875H3.125V57A3.125,3.125,0,0,0,6.25,60.125H21.875A3.125,3.125,0,0,0,25,57V41.375A3.125,3.125,0,0,0,21.875,38.25Z" transform="translate(0 -38.25)" fill="#a8a8a8"/>
</svg>
