<svg xmlns="http://www.w3.org/2000/svg" xmlns:xlink="http://www.w3.org/1999/xlink" width="107" height="106.997" viewBox="0 0 107 106.997">
  <defs>
    <linearGradient id="linear-gradient" y1="0.5" x2="1" y2="0.5" gradientUnits="objectBoundingBox">
      <stop offset="0" stop-color="#004361"/>
      <stop offset="1" stop-color="#006391"/>
    </linearGradient>
  </defs>
  <path id="Subtraction_11" data-name="Subtraction 11" d="M-692.5,151a53.156,53.156,0,0,1-20.824-4.2A53.333,53.333,0,0,1-730.33,135.33,53.318,53.318,0,0,1-741.8,118.325,53.156,53.156,0,0,1-746,97.5a53.165,53.165,0,0,1,4.2-20.825A53.339,53.339,0,0,1-730.33,59.67,53.334,53.334,0,0,1-713.324,48.2,53.156,53.156,0,0,1-693,44V57.144a40.083,40.083,0,0,0-15.21,3.169,40.227,40.227,0,0,0-12.829,8.649,40.231,40.231,0,0,0-8.649,12.829,40.117,40.117,0,0,0-3.172,15.71,40.115,40.115,0,0,0,3.172,15.71,40.231,40.231,0,0,0,8.649,12.829,40.222,40.222,0,0,0,12.829,8.65,40.1,40.1,0,0,0,15.71,3.173,40.093,40.093,0,0,0,15.71-3.173,40.217,40.217,0,0,0,12.829-8.65,40.233,40.233,0,0,0,8.649-12.829,40.109,40.109,0,0,0,3.172-15.71q0-.25,0-.5H-639v.142q0,.179,0,.358a53.155,53.155,0,0,1-4.2,20.824A53.288,53.288,0,0,1-654.67,135.33a53.324,53.324,0,0,1-17,11.465A53.165,53.165,0,0,1-692.5,151Z" transform="translate(746 -44.002)" fill="url(#linear-gradient)"/>
</svg>
