<svg xmlns="http://www.w3.org/2000/svg" width="47" height="26" viewBox="0 0 47 26">
  <g id="Group_40" data-name="Group 40" transform="translate(-24.752 -980.378)">
    <rect id="Rectangle_40" data-name="Rectangle 40" width="47" height="26" rx="4" transform="translate(24.752 980.378)" fill="#3c3c3c"/>
    <g id="visa" transform="translate(29.96 988.169)">
      <path id="Path_18" data-name="Path 18" d="M184.8,190.678l1.827-10.278h2.855l-1.77,10.278Z" transform="translate(-171.61 -180.057)" fill="#989898"/>
      <path id="Path_19" data-name="Path 19" d="M184.8,190.678l2.341-10.278h2.341l-1.77,10.278Z" transform="translate(-171.61 -180.057)" fill="#989898"/>
      <path id="Path_20" data-name="Path 20" d="M256.736,176.057a7.242,7.242,0,0,0-2.627-.457c-2.855,0-4.911,1.427-4.911,3.483,0,1.542,1.427,2.341,2.569,2.855s1.485.856,1.485,1.313c0,.685-.914,1.028-1.713,1.028a6.206,6.206,0,0,1-2.741-.571l-.4-.171-.4,2.341a9.259,9.259,0,0,0,3.255.571c3.026,0,5.025-1.427,5.025-3.6,0-1.2-.742-2.113-2.455-2.855-1.028-.514-1.656-.8-1.656-1.313,0-.457.514-.914,1.656-.914a5.237,5.237,0,0,1,2.17.4l.286.114.457-2.227Z" transform="translate(-230.299 -175.6)" fill="#989898"/>
      <path id="Path_21" data-name="Path 21" d="M256.736,176.057a7.242,7.242,0,0,0-2.627-.457c-2.855,0-4.4,1.427-4.4,3.483a2.985,2.985,0,0,0,2.056,2.855c1.142.514,1.485.856,1.485,1.313,0,.685-.914,1.028-1.713,1.028a6.206,6.206,0,0,1-2.741-.571l-.4-.171-.4,2.341a9.259,9.259,0,0,0,3.255.571c3.026,0,5.025-1.427,5.025-3.6,0-1.2-.742-2.113-2.455-2.855-1.028-.514-1.656-.8-1.656-1.313,0-.457.514-.914,1.656-.914a5.237,5.237,0,0,1,2.17.4l.286.114.457-2.227Z" transform="translate(-230.299 -175.6)" fill="#989898"/>
      <path id="Path_22" data-name="Path 22" d="M364.167,180.4c-.685,0-1.2.057-1.485.742l-4.282,9.536h3.083l.571-1.713h3.654l.343,1.713h2.741l-2.4-10.278Zm-1.313,6.852c.171-.514,1.142-3.026,1.142-3.026s.228-.628.4-1.028l.171.971s.571,2.569.685,3.14h-2.4Z" transform="translate(-332.819 -180.057)" fill="#989898"/>
      <path id="Path_23" data-name="Path 23" d="M364.852,180.4c-.685,0-1.2.057-1.485.742l-4.968,9.536h3.083l.571-1.713h3.654l.343,1.713h2.741l-2.4-10.278Zm-2,6.852c.228-.571,1.142-3.026,1.142-3.026s.228-.628.4-1.028l.171.971s.571,2.569.685,3.14h-2.4Z" transform="translate(-332.819 -180.057)" fill="#989898"/>
      <path id="Path_24" data-name="Path 24" d="M55.482,188.337l-.285-1.485a8.277,8.277,0,0,0-4-4.511l2.569,9.136h3.083L61.478,181.2H58.395Z" transform="translate(-47.546 -180.8)" fill="#989898"/>
      <path id="Path_25" data-name="Path 25" d="M55.482,188.337l-.285-1.485a8.277,8.277,0,0,0-4-4.511l2.569,9.136h3.083L61.478,181.2H58.966Z" transform="translate(-47.546 -180.8)" fill="#989898"/>
      <path id="Path_26" data-name="Path 26" d="M0,180.4l.514.114c3.654.857,6.167,3.026,7.137,5.6l-1.028-4.853c-.171-.685-.685-.857-1.313-.857Z" transform="translate(0 -180.057)" fill="#989898"/>
      <path id="Path_27" data-name="Path 27" d="M0,180.4H0c3.654.857,6.681,3.083,7.651,5.653L6.681,182a1.394,1.394,0,0,0-1.37-1.085Z" transform="translate(0 -180.057)" fill="#989898"/>
      <path id="Path_28" data-name="Path 28" d="M0,180.4H0c3.654.857,6.681,3.083,7.651,5.653l-.685-2.227a2.014,2.014,0,0,0-1.2-1.656Z" transform="translate(0 -180.057)" fill="#989898"/>
      <g id="Group_39" data-name="Group 39" transform="translate(3.711 1.485)">
        <path id="Path_29" data-name="Path 29" d="M59.08,202.11l-1.941-1.941-.914,2.17L56,200.911a8.277,8.277,0,0,0-4-4.511l2.569,9.136h3.083Z" transform="translate(-52 -196.4)" fill="#989898"/>
        <path id="Path_30" data-name="Path 30" d="M187.712,291.712l-2.455-2.512-.457,2.512Z" transform="translate(-175.321 -282.576)" fill="#989898"/>
        <path id="Path_31" data-name="Path 31" d="M252.968,274.8h0c.228.228.343.4.286.628,0,.685-.914,1.028-1.713,1.028a6.206,6.206,0,0,1-2.741-.571l-.4-.171-.4,2.341a9.258,9.258,0,0,0,3.255.571,5.654,5.654,0,0,0,4.168-1.427Z" transform="translate(-234.011 -269.204)" fill="#989898"/>
        <path id="Path_32" data-name="Path 32" d="M364,227.08h2.684l.571-1.713h3.654l.343,1.713h2.741l-.971-4.168L369.6,219.6l.171.914s.571,2.569.685,3.14h-2.4c.228-.571,1.142-3.026,1.142-3.026s.228-.628.4-1.028" transform="translate(-341.731 -217.944)" fill="#989898"/>
      </g>
    </g>
  </g>
</svg>
