<svg xmlns="http://www.w3.org/2000/svg" width="54.031" height="30.576" viewBox="0 0 54.031 30.576">
  <path id="vk" d="M46.5,130.569a73.556,73.556,0,0,1,5.291,5.322,15.467,15.467,0,0,1,1.9,2.733c.729,1.412.069,2.966-1.2,3.051l-7.871,0a6.077,6.077,0,0,1-5.011-2.037c-1.09-1.11-2.1-2.291-3.147-3.439a7.457,7.457,0,0,0-1.416-1.259,1.645,1.645,0,0,0-2.621.637,8.271,8.271,0,0,0-.829,3.672c-.084,1.854-.645,2.341-2.506,2.426a20.129,20.129,0,0,1-11.263-2.422,24.886,24.886,0,0,1-7.579-7.1A95.531,95.531,0,0,1,.273,114.375c-.63-1.4-.169-2.154,1.377-2.181,2.568-.05,5.135-.046,7.706,0a2.264,2.264,0,0,1,2.138,1.6,47.77,47.77,0,0,0,5.223,9.679,8.256,8.256,0,0,0,1.973,2.169,1.2,1.2,0,0,0,2.037-.6,6.717,6.717,0,0,0,.453-2.03,30.23,30.23,0,0,0-.127-7.115,2.965,2.965,0,0,0-2.526-2.714c-.752-.143-.64-.423-.276-.852a2.83,2.83,0,0,1,2.414-1.2h8.9c1.4.276,1.711.906,1.9,2.315l.008,9.881c-.015.545.272,2.164,1.255,2.525.786.257,1.3-.372,1.777-.871a30.64,30.64,0,0,0,5.008-7.7c.6-1.216,1.121-2.48,1.623-3.742a1.9,1.9,0,0,1,2.011-1.377l8.562.008a4.512,4.512,0,0,1,.757.046c1.443.246,1.838.866,1.392,2.275a21.377,21.377,0,0,1-3.4,5.9c-1.428,1.976-2.955,3.884-4.371,5.871-1.3,1.815-1.2,2.73.418,4.306Z" transform="translate(0 -111.127)" fill="#436eab"/>
</svg>
